<?xml version="1.0" encoding="utf-8" ?>
<svg xmlns="http://www.w3.org/2000/svg" xmlns:xlink="http://www.w3.org/1999/xlink" width="512" height="512">
	<path fill="#7D63FF" d="M43.5345 392.602C54.6036 393.116 50.6969 407.767 40.5655 409.548C28.9879 407.62 32.4147 393.569 43.5345 392.602Z"/>
	<defs>
		<linearGradient id="gradient_0" gradientUnits="userSpaceOnUse" x1="364.42062" y1="294.3967" x2="457.49683" y2="421.92673">
			<stop offset="0" stop-color="#6691FD"/>
			<stop offset="1" stop-color="#1FD9FA"/>
		</linearGradient>
	</defs>
	<path fill="url(#gradient_0)" d="M476.149 235.774C479.995 235.524 484.408 238.145 484.534 242.375L484.62 368.286C483.626 395.942 463.263 420.802 440.597 434.739C417.066 449.208 393.964 452.372 367.31 452.375L354.43 452.278C320.749 450.347 292.545 429.502 288.957 394.017C286.938 374.06 292.845 354.298 305.402 338.652C309.332 333.755 316.508 327.405 320.927 335.687L321.069 335.963C324.492 342.512 319.867 344.977 316.019 349.679C301.512 367.405 299.773 393.354 310.773 413.299L311.237 414.091C325.283 437.228 355.309 438.679 379.812 437.129L389.128 436.075C421.923 431.874 454.81 415.836 466.733 382.805C468.053 379.147 468.641 375.616 469.585 371.896L469.794 371C471.323 361.045 470.627 344.068 464.733 336.155L463.536 334.576C449.221 316.831 416.769 312.719 394.75 314.32C387.991 314.811 381.091 316.156 374.477 317.611L365.934 319.701C361.877 320.742 357.259 322.319 353.939 318.809C351.17 315.881 350.772 310.852 353.875 307.972C358.141 304.013 386.36 300.086 392.842 299.657C415.323 298.167 452.82 301.765 469.489 319.525L469.531 255.824C469.532 252.579 468.511 242.386 470.549 239.875L470.761 239.625C472.281 237.677 473.903 236.75 476.149 235.774Z"/>
	<defs>
		<linearGradient id="gradient_1" gradientUnits="userSpaceOnUse" x1="151.96048" y1="106.36109" x2="351.70767" y2="369.00687">
			<stop offset="0" stop-color="#A039FF"/>
			<stop offset="1" stop-color="#4E9FFE"/>
		</linearGradient>
	</defs>
	<path fill="url(#gradient_1)" d="M460.352 5.35839C462.501 5.24287 464.818 5.28779 466.906 5.85886L467.25 5.95784C475.881 8.37003 483.923 17.5756 484.392 26.7595L484.433 182.537C484.411 183.675 484.495 185.085 483.913 186.102L483.746 186.375C480.752 191.569 473.923 192.885 470.601 186.888L470.425 186.554C469.849 185.5 469.615 184.62 469.553 183.431L469.563 37.8037C469.661 32.8455 472.119 23.2065 466.418 20.3013L465.571 19.9046C461.443 18.4486 443.679 22.5871 438.832 23.375L347.065 38.2066L284.75 49.2433L256.733 52.8917C253.469 53.3537 241.17 54.6866 239.133 57.0636C237.999 58.3869 238.493 74.1487 238.496 77.1353L238.81 76.9986C240.37 76.3648 242.667 76.3162 244.352 76.074L406 49.759C422.251 47.5176 419.957 61.0848 413.599 63.1074C410.19 64.1918 406.306 64.469 402.774 65.0576L245.702 91.0599C242.641 91.6363 238.489 91.1564 238.488 94.151L238.517 413.466C238.457 460.54 211.568 485.088 167.786 499.475L159.427 501.875C124.114 511.086 66.6602 513.499 41.9169 483.875C34.2079 474.645 29.2252 461.427 26.2445 449.732C23.0143 437.059 35.4389 435.464 39.5585 442.869C41.0552 445.56 41.5019 449.306 42.3571 452.281C47.9892 471.879 55.8861 481.401 74.75 487.81C92.6366 493.887 111.882 494.14 130.484 491.999C171.303 487.3 219.861 469.794 223.302 422.582C223.764 416.233 224.065 397.389 222.659 391.757C222.014 389.171 220.581 386.594 219.146 384.354C194.474 345.86 124.149 354.803 87.5 371.505C83.5906 373.286 79.6563 375.577 75.4645 376.57C71.8098 375.713 68.1074 372.614 68.04 368.625C67.9366 362.504 78.4297 358.985 83.2104 357.044C108.426 346.804 135.637 342.41 162.759 342.5C185.169 342.574 207.469 350.189 223.424 366.247L223.478 61.874C223.645 51.1544 229.975 44.0641 240.284 41.3152C250.088 38.7012 260.465 37.9426 270.466 36.3263L337.25 25.7002L424.25 10.753C436.19 8.84412 448.301 6.2772 460.352 5.35839Z"/>
</svg>
